<mxfile host="app.diagrams.net" modified="2021-08-06T18:37:07.022Z" agent="5.0 (Windows)" etag="0DnxaXHNAVL0C2D_YPiD" version="14.9.4" type="github" pages="4">
  <diagram id="Ux-CoL28tpdrG4HBIfI5" name="Hauptseite">
    <mxGraphModel dx="734" dy="4010" grid="1" gridSize="10" guides="1" tooltips="1" connect="1" arrows="1" fold="1" page="1" pageScale="1" pageWidth="827" pageHeight="1169" math="0" shadow="0">
      <root>
        <mxCell id="P8qqIZweVvtInhan3EcA-0" />
        <mxCell id="P8qqIZweVvtInhan3EcA-1" parent="P8qqIZweVvtInhan3EcA-0" />
        <mxCell id="jv4U-KMPbpQkZisvmpt5-0" value="" style="verticalLabelPosition=bottom;verticalAlign=top;html=1;shadow=0;dashed=0;strokeWidth=1;shape=mxgraph.android.phone2;strokeColor=#c0c0c0;" vertex="1" parent="P8qqIZweVvtInhan3EcA-1">
          <mxGeometry x="80" y="80" width="200" height="390" as="geometry" />
        </mxCell>
        <mxCell id="jv4U-KMPbpQkZisvmpt5-1" value="" style="verticalLabelPosition=bottom;shadow=0;dashed=0;align=center;html=1;verticalAlign=top;strokeWidth=1;shape=mxgraph.mockup.misc.map;strokeColor=none;" vertex="1" parent="P8qqIZweVvtInhan3EcA-1">
          <mxGeometry x="69" y="-3375.5" width="240" height="300" as="geometry" />
        </mxCell>
        <mxCell id="jv4U-KMPbpQkZisvmpt5-2" value="" style="verticalLabelPosition=bottom;verticalAlign=top;html=1;shadow=0;dashed=0;strokeWidth=1;shape=mxgraph.android.phone2;strokeColor=#c0c0c0;fillColor=#330000;" vertex="1" parent="P8qqIZweVvtInhan3EcA-1">
          <mxGeometry x="70" y="-3460" width="240" height="460" as="geometry" />
        </mxCell>
        <mxCell id="jv4U-KMPbpQkZisvmpt5-3" value="" style="html=1;aspect=fixed;shadow=0;align=center;verticalAlign=top;shape=mxgraph.gcp2.maps_api;fillColor=#FF6666;strokeWidth=2;" vertex="1" parent="P8qqIZweVvtInhan3EcA-1">
          <mxGeometry x="167.8" y="-3265" width="24.4" height="40" as="geometry" />
        </mxCell>
        <mxCell id="aUW1Lj8HsczlktVlegEz-53" value="IDEEN&amp;nbsp;&amp;nbsp;&amp;nbsp; " style="rounded=0;whiteSpace=wrap;html=1;strokeColor=#d6b656;strokeWidth=2;fillColor=#fff2cc;" vertex="1" parent="P8qqIZweVvtInhan3EcA-1">
          <mxGeometry x="80" y="-3076.5" width="110" height="35" as="geometry" />
        </mxCell>
        <mxCell id="aUW1Lj8HsczlktVlegEz-54" value="&amp;nbsp;&amp;nbsp;&amp;nbsp; GALERIE" style="rounded=0;whiteSpace=wrap;html=1;strokeColor=#d6b656;strokeWidth=2;fillColor=#fff2cc;" vertex="1" parent="P8qqIZweVvtInhan3EcA-1">
          <mxGeometry x="190" y="-3076.5" width="112.2" height="35" as="geometry" />
        </mxCell>
        <mxCell id="jv4U-KMPbpQkZisvmpt5-7" value="" style="ellipse;whiteSpace=wrap;html=1;aspect=fixed;strokeColor=#000000;strokeWidth=2;fillColor=#FF6666;" vertex="1" parent="P8qqIZweVvtInhan3EcA-1">
          <mxGeometry x="165" y="-3103" width="50" height="50" as="geometry" />
        </mxCell>
        <mxCell id="jv4U-KMPbpQkZisvmpt5-4" value="" style="shape=image;html=1;verticalAlign=top;verticalLabelPosition=bottom;labelBackgroundColor=#ffffff;imageAspect=0;aspect=fixed;image=https://cdn1.iconfinder.com/data/icons/people-line/32/people_2-128.png;strokeColor=#000000;strokeWidth=2;fillColor=#FF6666;" vertex="1" parent="P8qqIZweVvtInhan3EcA-1">
          <mxGeometry x="171.5" y="-3096.5" width="37" height="37" as="geometry" />
        </mxCell>
        <mxCell id="aUW1Lj8HsczlktVlegEz-94" style="edgeStyle=orthogonalEdgeStyle;rounded=0;orthogonalLoop=1;jettySize=auto;html=1;exitX=1;exitY=0.5;exitDx=0;exitDy=0;entryX=0;entryY=0.5;entryDx=0;entryDy=0;fontSize=9;" edge="1" parent="P8qqIZweVvtInhan3EcA-1" source="aUW1Lj8HsczlktVlegEz-56" target="aUW1Lj8HsczlktVlegEz-92">
          <mxGeometry relative="1" as="geometry" />
        </mxCell>
        <mxCell id="aUW1Lj8HsczlktVlegEz-56" value="" style="shape=image;html=1;verticalAlign=top;verticalLabelPosition=bottom;labelBackgroundColor=#ffffff;imageAspect=0;aspect=fixed;image=https://cdn1.iconfinder.com/data/icons/100-basic-for-user-interface/32/33-home-128.png;strokeColor=#000000;strokeWidth=2;fillColor=#330000;" vertex="1" parent="P8qqIZweVvtInhan3EcA-1">
          <mxGeometry x="270" y="-3410" width="28" height="28" as="geometry" />
        </mxCell>
        <mxCell id="aUW1Lj8HsczlktVlegEz-57" value="" style="shape=rect;fillColor=#e0e0e0;strokeColor=none;" vertex="1" parent="P8qqIZweVvtInhan3EcA-1">
          <mxGeometry x="120" y="-3410" width="138" height="30" as="geometry" />
        </mxCell>
        <mxCell id="aUW1Lj8HsczlktVlegEz-58" value="Suche&amp;nbsp;&amp;nbsp;&amp;nbsp;&amp;nbsp;&amp;nbsp; " style="html=1;strokeWidth=1;shadow=0;dashed=0;shape=mxgraph.ios7ui.marginRect;rx=3;ry=3;rectMargin=5;strokeColor=none;" vertex="1" parent="aUW1Lj8HsczlktVlegEz-57">
          <mxGeometry width="138" height="30" as="geometry" />
        </mxCell>
        <mxCell id="aUW1Lj8HsczlktVlegEz-61" value="" style="shape=image;html=1;verticalAlign=top;verticalLabelPosition=bottom;labelBackgroundColor=#ffffff;imageAspect=0;aspect=fixed;image=https://cdn1.iconfinder.com/data/icons/jumpicon-basic-ui-glyph-1/32/-_Hamburger-Menu-More-Navigation--128.png;strokeColor=#000000;strokeWidth=2;fillColor=#330000;" vertex="1" parent="P8qqIZweVvtInhan3EcA-1">
          <mxGeometry x="80" y="-3416.5" width="41" height="41" as="geometry" />
        </mxCell>
        <mxCell id="aUW1Lj8HsczlktVlegEz-66" value="" style="html=1;aspect=fixed;strokeColor=none;shadow=0;align=center;verticalAlign=top;shape=mxgraph.gcp2.search;fontSize=9;fillColor=#999999;" vertex="1" parent="P8qqIZweVvtInhan3EcA-1">
          <mxGeometry x="229.94" y="-3402.3" width="14.46" height="14.6" as="geometry" />
        </mxCell>
        <mxCell id="aUW1Lj8HsczlktVlegEz-70" value="" style="ellipse;whiteSpace=wrap;html=1;aspect=fixed;fontSize=9;strokeColor=#000000;strokeWidth=2;fillColor=#999999;gradientColor=none;" vertex="1" parent="P8qqIZweVvtInhan3EcA-1">
          <mxGeometry x="240" y="-3230" width="25" height="25" as="geometry" />
        </mxCell>
        <mxCell id="aUW1Lj8HsczlktVlegEz-71" value="" style="shape=image;html=1;verticalAlign=top;verticalLabelPosition=bottom;labelBackgroundColor=#ffffff;imageAspect=0;aspect=fixed;image=https://cdn1.iconfinder.com/data/icons/iconnice-vector-icon/31/Vector-icons_86-128.png;fontSize=9;strokeColor=#000000;strokeWidth=2;fillColor=#999999;gradientColor=none;" vertex="1" parent="P8qqIZweVvtInhan3EcA-1">
          <mxGeometry x="245.75" y="-3224.25" width="13.5" height="13.5" as="geometry" />
        </mxCell>
        <mxCell id="aUW1Lj8HsczlktVlegEz-90" style="edgeStyle=orthogonalEdgeStyle;rounded=0;orthogonalLoop=1;jettySize=auto;html=1;exitX=1;exitY=0.5;exitDx=0;exitDy=0;fontSize=9;" edge="1" parent="P8qqIZweVvtInhan3EcA-1" source="aUW1Lj8HsczlktVlegEz-73" target="aUW1Lj8HsczlktVlegEz-91">
          <mxGeometry relative="1" as="geometry">
            <mxPoint x="390" y="-3340" as="targetPoint" />
          </mxGeometry>
        </mxCell>
        <mxCell id="aUW1Lj8HsczlktVlegEz-73" value="" style="ellipse;whiteSpace=wrap;html=1;aspect=fixed;fontSize=9;strokeColor=#82b366;strokeWidth=2;fillColor=#d5e8d4;" vertex="1" parent="P8qqIZweVvtInhan3EcA-1">
          <mxGeometry x="190" y="-3360" width="40" height="40" as="geometry" />
        </mxCell>
        <mxCell id="aUW1Lj8HsczlktVlegEz-74" value="" style="shape=image;html=1;verticalAlign=top;verticalLabelPosition=bottom;labelBackgroundColor=#ffffff;imageAspect=0;aspect=fixed;image=https://cdn1.iconfinder.com/data/icons/iconnice-vector-icon/31/Vector-icons_86-128.png;fontSize=9;strokeColor=#000000;strokeWidth=2;fillColor=#999999;gradientColor=none;" vertex="1" parent="P8qqIZweVvtInhan3EcA-1">
          <mxGeometry x="197.9" y="-3352.09" width="24.19" height="24.19" as="geometry" />
        </mxCell>
        <mxCell id="aUW1Lj8HsczlktVlegEz-75" value="" style="ellipse;whiteSpace=wrap;html=1;aspect=fixed;fontSize=9;strokeColor=#b85450;strokeWidth=2;fillColor=#f8cecc;" vertex="1" parent="P8qqIZweVvtInhan3EcA-1">
          <mxGeometry x="142.8" y="-3170" width="25" height="25" as="geometry" />
        </mxCell>
        <mxCell id="aUW1Lj8HsczlktVlegEz-76" value="" style="shape=image;html=1;verticalAlign=top;verticalLabelPosition=bottom;labelBackgroundColor=#ffffff;imageAspect=0;aspect=fixed;image=https://cdn1.iconfinder.com/data/icons/iconnice-vector-icon/31/Vector-icons_86-128.png;fontSize=9;strokeColor=#000000;strokeWidth=2;fillColor=#999999;gradientColor=none;" vertex="1" parent="P8qqIZweVvtInhan3EcA-1">
          <mxGeometry x="148.55" y="-3164.25" width="13.5" height="13.5" as="geometry" />
        </mxCell>
        <mxCell id="aUW1Lj8HsczlktVlegEz-81" value="" style="ellipse;whiteSpace=wrap;html=1;aspect=fixed;fontSize=9;strokeColor=#82b366;strokeWidth=2;fillColor=#d5e8d4;" vertex="1" parent="P8qqIZweVvtInhan3EcA-1">
          <mxGeometry x="160" y="-3300" width="25" height="25" as="geometry" />
        </mxCell>
        <mxCell id="aUW1Lj8HsczlktVlegEz-80" value="" style="shape=image;html=1;verticalAlign=top;verticalLabelPosition=bottom;labelBackgroundColor=#ffffff;imageAspect=0;aspect=fixed;image=https://cdn0.iconfinder.com/data/icons/pinpoint-notifocation/48/question-128.png;fontSize=9;strokeColor=#000000;strokeWidth=2;fillColor=#999999;gradientColor=none;" vertex="1" parent="P8qqIZweVvtInhan3EcA-1">
          <mxGeometry x="163" y="-3297" width="19" height="19" as="geometry" />
        </mxCell>
        <mxCell id="aUW1Lj8HsczlktVlegEz-83" value="" style="ellipse;whiteSpace=wrap;html=1;aspect=fixed;fontSize=9;strokeColor=#82b366;strokeWidth=2;fillColor=#d5e8d4;" vertex="1" parent="P8qqIZweVvtInhan3EcA-1">
          <mxGeometry x="110" y="-3345" width="25" height="25" as="geometry" />
        </mxCell>
        <mxCell id="aUW1Lj8HsczlktVlegEz-84" value="" style="ellipse;whiteSpace=wrap;html=1;aspect=fixed;fontSize=9;strokeColor=#82b366;strokeWidth=2;fillColor=#d5e8d4;" vertex="1" parent="P8qqIZweVvtInhan3EcA-1">
          <mxGeometry x="100" y="-3257.5" width="25" height="25" as="geometry" />
        </mxCell>
        <mxCell id="aUW1Lj8HsczlktVlegEz-85" value="" style="ellipse;whiteSpace=wrap;html=1;aspect=fixed;fontSize=9;strokeColor=#82b366;strokeWidth=2;fillColor=#d5e8d4;" vertex="1" parent="P8qqIZweVvtInhan3EcA-1">
          <mxGeometry x="215" y="-3175.75" width="25" height="25" as="geometry" />
        </mxCell>
        <mxCell id="aUW1Lj8HsczlktVlegEz-86" value="" style="shape=image;html=1;verticalAlign=top;verticalLabelPosition=bottom;labelBackgroundColor=#ffffff;imageAspect=0;aspect=fixed;image=https://cdn0.iconfinder.com/data/icons/sport-2-android-l-lollipop-icon-pack/24/walking-128.png;fontSize=9;strokeColor=#000000;strokeWidth=2;fillColor=#999999;gradientColor=none;" vertex="1" parent="P8qqIZweVvtInhan3EcA-1">
          <mxGeometry x="112.5" y="-3342.5" width="20" height="20" as="geometry" />
        </mxCell>
        <mxCell id="aUW1Lj8HsczlktVlegEz-87" value="" style="shape=image;html=1;verticalAlign=top;verticalLabelPosition=bottom;labelBackgroundColor=#ffffff;imageAspect=0;aspect=fixed;image=https://cdn3.iconfinder.com/data/icons/essential-pack/32/10-House-128.png;fontSize=9;strokeColor=#000000;strokeWidth=2;fillColor=#999999;gradientColor=none;" vertex="1" parent="P8qqIZweVvtInhan3EcA-1">
          <mxGeometry x="103.5" y="-3254" width="18" height="18" as="geometry" />
        </mxCell>
        <mxCell id="aUW1Lj8HsczlktVlegEz-88" value="" style="shape=image;html=1;verticalAlign=top;verticalLabelPosition=bottom;labelBackgroundColor=#ffffff;imageAspect=0;aspect=fixed;image=https://cdn4.iconfinder.com/data/icons/camping-hand-drawn/39/camping_hand_drawn_icon_-12-128.png;fontSize=9;strokeColor=#000000;strokeWidth=2;fillColor=#999999;gradientColor=none;" vertex="1" parent="P8qqIZweVvtInhan3EcA-1">
          <mxGeometry x="440" y="-3145" width="18" height="18" as="geometry" />
        </mxCell>
        <mxCell id="aUW1Lj8HsczlktVlegEz-89" value="" style="shape=image;html=1;verticalAlign=top;verticalLabelPosition=bottom;labelBackgroundColor=#ffffff;imageAspect=0;aspect=fixed;image=https://cdn4.iconfinder.com/data/icons/business-660/512/17_team_group_meeting_business-128.png;fontSize=9;strokeColor=#000000;strokeWidth=2;fillColor=#999999;gradientColor=none;" vertex="1" parent="P8qqIZweVvtInhan3EcA-1">
          <mxGeometry x="216.5" y="-3174.25" width="22" height="22" as="geometry" />
        </mxCell>
        <mxCell id="aUW1Lj8HsczlktVlegEz-91" value="&lt;div&gt;Größe zeigt angemeldete Teilnehmer&lt;/div&gt;&lt;div&gt;Farbe (rot = voll, grün = frei, grau = Zukunft)&lt;br&gt;&lt;/div&gt;" style="rounded=0;whiteSpace=wrap;html=1;fontSize=9;strokeColor=#000000;strokeWidth=2;gradientColor=none;fillColor=none;" vertex="1" parent="P8qqIZweVvtInhan3EcA-1">
          <mxGeometry x="330" y="-3370" width="210" height="60" as="geometry" />
        </mxCell>
        <mxCell id="aUW1Lj8HsczlktVlegEz-92" value="Home-Button = Startbildschirm" style="rounded=0;whiteSpace=wrap;html=1;fontSize=9;strokeColor=#000000;strokeWidth=2;fillColor=none;gradientColor=none;" vertex="1" parent="P8qqIZweVvtInhan3EcA-1">
          <mxGeometry x="360" y="-3410" width="150" height="28" as="geometry" />
        </mxCell>
      </root>
    </mxGraphModel>
  </diagram>
  <diagram id="gsRIpSryXONIDHwY-FAu" name="Sammeln">
    <mxGraphModel dx="881" dy="4110" grid="1" gridSize="10" guides="1" tooltips="1" connect="1" arrows="1" fold="1" page="1" pageScale="1" pageWidth="827" pageHeight="1169" math="0" shadow="0">
      <root>
        <mxCell id="0" />
        <mxCell id="1" parent="0" />
        <mxCell id="_oiTzEHGNZcOumjxvC1C-14" value="" style="verticalLabelPosition=bottom;verticalAlign=top;html=1;shadow=0;dashed=0;strokeWidth=1;shape=mxgraph.android.phone2;strokeColor=#c0c0c0;" parent="1" vertex="1">
          <mxGeometry x="80" y="-3400" width="200" height="390" as="geometry" />
        </mxCell>
        <mxCell id="fQ1us_EzoNi8cJHMZUwB-2" value="" style="html=1;aspect=fixed;strokeColor=none;shadow=0;align=center;verticalAlign=top;fillColor=#3B8DF1;shape=mxgraph.gcp2.search" vertex="1" parent="1">
          <mxGeometry x="330" y="-3320" width="20" height="20.2" as="geometry" />
        </mxCell>
        <mxCell id="fQ1us_EzoNi8cJHMZUwB-3" value="" style="dashed=0;align=center;fontSize=12;shape=rect;fillColor=#ffffff;strokeColor=#eeeeee;shadow=1;" vertex="1" parent="1">
          <mxGeometry x="460" y="-3370" width="100" height="180" as="geometry" />
        </mxCell>
        <mxCell id="fQ1us_EzoNi8cJHMZUwB-4" value="State 1" style="text;fontColor=#FF4081;verticalAlign=middle;spacingLeft=13;fontSize=14;resizeWidth=1;" vertex="1" parent="fQ1us_EzoNi8cJHMZUwB-3">
          <mxGeometry width="100" height="45" relative="1" as="geometry" />
        </mxCell>
        <mxCell id="fQ1us_EzoNi8cJHMZUwB-5" value="State 2" style="text;fontColor=#000000;verticalAlign=middle;spacingLeft=13;fontSize=14;fillColor=#eeeeee;resizeWidth=1;" vertex="1" parent="fQ1us_EzoNi8cJHMZUwB-3">
          <mxGeometry width="100" height="45" relative="1" as="geometry">
            <mxPoint y="45" as="offset" />
          </mxGeometry>
        </mxCell>
        <mxCell id="fQ1us_EzoNi8cJHMZUwB-6" value="State 3" style="text;fontColor=#000000;verticalAlign=middle;spacingLeft=13;fontSize=14;resizeWidth=1;" vertex="1" parent="fQ1us_EzoNi8cJHMZUwB-3">
          <mxGeometry width="100" height="45" relative="1" as="geometry">
            <mxPoint y="90" as="offset" />
          </mxGeometry>
        </mxCell>
        <mxCell id="fQ1us_EzoNi8cJHMZUwB-7" value="State 4" style="text;fontColor=#000000;verticalAlign=middle;spacingLeft=13;fontSize=14;resizeWidth=1;" vertex="1" parent="fQ1us_EzoNi8cJHMZUwB-3">
          <mxGeometry width="100" height="45" relative="1" as="geometry">
            <mxPoint y="135" as="offset" />
          </mxGeometry>
        </mxCell>
        <mxCell id="fQ1us_EzoNi8cJHMZUwB-8" value="" style="shape=rect;strokeColor=#eeeeee;fillColor=#ffffff;shadow=1;perimeter=none;" vertex="1" parent="1">
          <mxGeometry x="400" y="-3156" width="192" height="146" as="geometry" />
        </mxCell>
        <mxCell id="fQ1us_EzoNi8cJHMZUwB-9" value="Show" style="text;verticalAlign=middle;fontSize=15;spacing=16;spacingLeft=16;resizeWidth=1;perimeter=none;" vertex="1" parent="fQ1us_EzoNi8cJHMZUwB-8">
          <mxGeometry width="192" height="42" relative="1" as="geometry" />
        </mxCell>
        <mxCell id="fQ1us_EzoNi8cJHMZUwB-10" value="Grid lines" style="text;verticalAlign=middle;fontSize=15;spacingLeft=72;resizeWidth=1;perimeter=none;" vertex="1" parent="fQ1us_EzoNi8cJHMZUwB-8">
          <mxGeometry width="192" height="32" relative="1" as="geometry">
            <mxPoint y="42" as="offset" />
          </mxGeometry>
        </mxCell>
        <mxCell id="fQ1us_EzoNi8cJHMZUwB-11" value="" style="perimeter=none;dashed=0;shape=mxgraph.gmdl.check;fillColor=none;strokeWidth=2;strokeColor=#666666;" vertex="1" parent="fQ1us_EzoNi8cJHMZUwB-10">
          <mxGeometry y="0.5" width="18" height="14" relative="1" as="geometry">
            <mxPoint x="36" y="-7" as="offset" />
          </mxGeometry>
        </mxCell>
        <mxCell id="fQ1us_EzoNi8cJHMZUwB-12" value="Page breaks" style="text;verticalAlign=middle;fontSize=15;spacingLeft=72;resizeWidth=1;perimeter=none;" vertex="1" parent="fQ1us_EzoNi8cJHMZUwB-8">
          <mxGeometry width="192" height="32" relative="1" as="geometry">
            <mxPoint y="74" as="offset" />
          </mxGeometry>
        </mxCell>
        <mxCell id="fQ1us_EzoNi8cJHMZUwB-13" value="Rules" style="text;verticalAlign=middle;fontSize=15;spacingLeft=72;resizeWidth=1;perimeter=none;" vertex="1" parent="fQ1us_EzoNi8cJHMZUwB-8">
          <mxGeometry width="192" height="32" relative="1" as="geometry">
            <mxPoint y="106" as="offset" />
          </mxGeometry>
        </mxCell>
        <mxCell id="fQ1us_EzoNi8cJHMZUwB-14" value="" style="perimeter=none;dashed=0;shape=mxgraph.gmdl.check;fillColor=none;strokeWidth=2;strokeColor=#666666;" vertex="1" parent="fQ1us_EzoNi8cJHMZUwB-13">
          <mxGeometry y="0.5" width="18" height="14" relative="1" as="geometry">
            <mxPoint x="36" y="-7" as="offset" />
          </mxGeometry>
        </mxCell>
        <mxCell id="77iEXywXWih31yL-sC0n-1" value="" style="verticalLabelPosition=bottom;shadow=0;dashed=0;align=center;html=1;verticalAlign=top;strokeWidth=1;shape=mxgraph.mockup.misc.map;" vertex="1" parent="1">
          <mxGeometry x="560" y="-3265" width="250" height="250" as="geometry" />
        </mxCell>
        <mxCell id="77iEXywXWih31yL-sC0n-2" value="" style="strokeWidth=1;shadow=0;dashed=0;align=center;html=1;shape=mxgraph.mockup.forms.rrect;rSize=5;strokeColor=#999999;fillColor=#ffffff;" vertex="1" parent="1">
          <mxGeometry x="310" y="-2980" width="160" height="175" as="geometry" />
        </mxCell>
        <mxCell id="77iEXywXWih31yL-sC0n-3" value="October 2014" style="strokeWidth=1;shadow=0;dashed=0;align=center;html=1;shape=mxgraph.mockup.forms.anchor;fontColor=#999999;" vertex="1" parent="77iEXywXWih31yL-sC0n-2">
          <mxGeometry x="30" y="8" width="100" height="20" as="geometry" />
        </mxCell>
        <mxCell id="77iEXywXWih31yL-sC0n-4" value="&lt;" style="strokeWidth=1;shadow=0;dashed=0;align=center;html=1;shape=mxgraph.mockup.forms.rrect;rSize=4;strokeColor=#999999;fontColor=#008cff;fontSize=19;fontStyle=1;" vertex="1" parent="77iEXywXWih31yL-sC0n-2">
          <mxGeometry x="8" y="8" width="25" height="20" as="geometry" />
        </mxCell>
        <mxCell id="77iEXywXWih31yL-sC0n-5" value="&gt;" style="strokeWidth=1;shadow=0;dashed=0;align=center;html=1;shape=mxgraph.mockup.forms.rrect;rSize=4;strokeColor=#999999;fontColor=#008cff;fontSize=19;fontStyle=1;" vertex="1" parent="77iEXywXWih31yL-sC0n-2">
          <mxGeometry x="127" y="8" width="25" height="20" as="geometry" />
        </mxCell>
        <mxCell id="77iEXywXWih31yL-sC0n-6" value="Mo" style="strokeWidth=1;shadow=0;dashed=0;align=center;html=1;shape=mxgraph.mockup.forms.anchor;fontColor=#999999;" vertex="1" parent="77iEXywXWih31yL-sC0n-2">
          <mxGeometry x="10" y="28" width="20" height="20" as="geometry" />
        </mxCell>
        <mxCell id="77iEXywXWih31yL-sC0n-7" value="Tu" style="strokeWidth=1;shadow=0;dashed=0;align=center;html=1;shape=mxgraph.mockup.forms.anchor;fontColor=#999999;" vertex="1" parent="77iEXywXWih31yL-sC0n-2">
          <mxGeometry x="30" y="28" width="20" height="20" as="geometry" />
        </mxCell>
        <mxCell id="77iEXywXWih31yL-sC0n-8" value="We" style="strokeWidth=1;shadow=0;dashed=0;align=center;html=1;shape=mxgraph.mockup.forms.anchor;fontColor=#999999;" vertex="1" parent="77iEXywXWih31yL-sC0n-2">
          <mxGeometry x="50" y="28" width="20" height="20" as="geometry" />
        </mxCell>
        <mxCell id="77iEXywXWih31yL-sC0n-9" value="Th" style="strokeWidth=1;shadow=0;dashed=0;align=center;html=1;shape=mxgraph.mockup.forms.anchor;fontColor=#999999;" vertex="1" parent="77iEXywXWih31yL-sC0n-2">
          <mxGeometry x="70" y="28" width="20" height="20" as="geometry" />
        </mxCell>
        <mxCell id="77iEXywXWih31yL-sC0n-10" value="Fr" style="strokeWidth=1;shadow=0;dashed=0;align=center;html=1;shape=mxgraph.mockup.forms.anchor;fontColor=#999999;" vertex="1" parent="77iEXywXWih31yL-sC0n-2">
          <mxGeometry x="90" y="28" width="20" height="20" as="geometry" />
        </mxCell>
        <mxCell id="77iEXywXWih31yL-sC0n-11" value="Sa" style="strokeWidth=1;shadow=0;dashed=0;align=center;html=1;shape=mxgraph.mockup.forms.anchor;fontColor=#999999;" vertex="1" parent="77iEXywXWih31yL-sC0n-2">
          <mxGeometry x="110" y="28" width="20" height="20" as="geometry" />
        </mxCell>
        <mxCell id="77iEXywXWih31yL-sC0n-12" value="Su" style="strokeWidth=1;shadow=0;dashed=0;align=center;html=1;shape=mxgraph.mockup.forms.anchor;fontColor=#999999;" vertex="1" parent="77iEXywXWih31yL-sC0n-2">
          <mxGeometry x="130" y="28" width="20" height="20" as="geometry" />
        </mxCell>
        <mxCell id="77iEXywXWih31yL-sC0n-13" value="1" style="strokeWidth=1;shadow=0;dashed=0;align=center;html=1;shape=mxgraph.mockup.forms.rrect;rSize=0;strokeColor=#999999;fontColor=#999999;" vertex="1" parent="77iEXywXWih31yL-sC0n-2">
          <mxGeometry x="10" y="48" width="20" height="20" as="geometry" />
        </mxCell>
        <mxCell id="77iEXywXWih31yL-sC0n-14" value="2" style="strokeWidth=1;shadow=0;dashed=0;align=center;html=1;shape=mxgraph.mockup.forms.rrect;rSize=0;strokeColor=#999999;fontColor=#999999;" vertex="1" parent="77iEXywXWih31yL-sC0n-2">
          <mxGeometry x="30" y="48" width="20" height="20" as="geometry" />
        </mxCell>
        <mxCell id="77iEXywXWih31yL-sC0n-15" value="3" style="strokeWidth=1;shadow=0;dashed=0;align=center;html=1;shape=mxgraph.mockup.forms.rrect;rSize=0;strokeColor=#999999;fontColor=#999999;" vertex="1" parent="77iEXywXWih31yL-sC0n-2">
          <mxGeometry x="50" y="48" width="20" height="20" as="geometry" />
        </mxCell>
        <mxCell id="77iEXywXWih31yL-sC0n-16" value="4" style="strokeWidth=1;shadow=0;dashed=0;align=center;html=1;shape=mxgraph.mockup.forms.rrect;rSize=0;strokeColor=#999999;fontColor=#999999;" vertex="1" parent="77iEXywXWih31yL-sC0n-2">
          <mxGeometry x="70" y="48" width="20" height="20" as="geometry" />
        </mxCell>
        <mxCell id="77iEXywXWih31yL-sC0n-17" value="5" style="strokeWidth=1;shadow=0;dashed=0;align=center;html=1;shape=mxgraph.mockup.forms.rrect;rSize=0;strokeColor=#999999;fontColor=#999999;" vertex="1" parent="77iEXywXWih31yL-sC0n-2">
          <mxGeometry x="90" y="48" width="20" height="20" as="geometry" />
        </mxCell>
        <mxCell id="77iEXywXWih31yL-sC0n-18" value="6" style="strokeWidth=1;shadow=0;dashed=0;align=center;html=1;shape=mxgraph.mockup.forms.rrect;rSize=0;strokeColor=#999999;fontColor=#999999;" vertex="1" parent="77iEXywXWih31yL-sC0n-2">
          <mxGeometry x="110" y="48" width="20" height="20" as="geometry" />
        </mxCell>
        <mxCell id="77iEXywXWih31yL-sC0n-19" value="7" style="strokeWidth=1;shadow=0;dashed=0;align=center;html=1;shape=mxgraph.mockup.forms.rrect;rSize=0;strokeColor=#999999;fontColor=#999999;" vertex="1" parent="77iEXywXWih31yL-sC0n-2">
          <mxGeometry x="130" y="48" width="20" height="20" as="geometry" />
        </mxCell>
        <mxCell id="77iEXywXWih31yL-sC0n-20" value="8" style="strokeWidth=1;shadow=0;dashed=0;align=center;html=1;shape=mxgraph.mockup.forms.rrect;rSize=0;strokeColor=#999999;fontColor=#999999;" vertex="1" parent="77iEXywXWih31yL-sC0n-2">
          <mxGeometry x="10" y="68" width="20" height="20" as="geometry" />
        </mxCell>
        <mxCell id="77iEXywXWih31yL-sC0n-21" value="9" style="strokeWidth=1;shadow=0;dashed=0;align=center;html=1;shape=mxgraph.mockup.forms.rrect;rSize=0;strokeColor=#999999;fontColor=#999999;" vertex="1" parent="77iEXywXWih31yL-sC0n-2">
          <mxGeometry x="30" y="68" width="20" height="20" as="geometry" />
        </mxCell>
        <mxCell id="77iEXywXWih31yL-sC0n-22" value="10" style="strokeWidth=1;shadow=0;dashed=0;align=center;html=1;shape=mxgraph.mockup.forms.rrect;rSize=0;strokeColor=#999999;fontColor=#999999;" vertex="1" parent="77iEXywXWih31yL-sC0n-2">
          <mxGeometry x="50" y="68" width="20" height="20" as="geometry" />
        </mxCell>
        <mxCell id="77iEXywXWih31yL-sC0n-23" value="11" style="strokeWidth=1;shadow=0;dashed=0;align=center;html=1;shape=mxgraph.mockup.forms.rrect;rSize=0;strokeColor=#999999;fontColor=#999999;" vertex="1" parent="77iEXywXWih31yL-sC0n-2">
          <mxGeometry x="70" y="68" width="20" height="20" as="geometry" />
        </mxCell>
        <mxCell id="77iEXywXWih31yL-sC0n-24" value="12" style="strokeWidth=1;shadow=0;dashed=0;align=center;html=1;shape=mxgraph.mockup.forms.rrect;rSize=0;strokeColor=#999999;fontColor=#999999;" vertex="1" parent="77iEXywXWih31yL-sC0n-2">
          <mxGeometry x="90" y="68" width="20" height="20" as="geometry" />
        </mxCell>
        <mxCell id="77iEXywXWih31yL-sC0n-25" value="13" style="strokeWidth=1;shadow=0;dashed=0;align=center;html=1;shape=mxgraph.mockup.forms.rrect;rSize=0;strokeColor=#999999;fontColor=#999999;" vertex="1" parent="77iEXywXWih31yL-sC0n-2">
          <mxGeometry x="110" y="68" width="20" height="20" as="geometry" />
        </mxCell>
        <mxCell id="77iEXywXWih31yL-sC0n-26" value="14" style="strokeWidth=1;shadow=0;dashed=0;align=center;html=1;shape=mxgraph.mockup.forms.rrect;rSize=0;strokeColor=#999999;fontColor=#999999;" vertex="1" parent="77iEXywXWih31yL-sC0n-2">
          <mxGeometry x="130" y="68" width="20" height="20" as="geometry" />
        </mxCell>
        <mxCell id="77iEXywXWih31yL-sC0n-27" value="15" style="strokeWidth=1;shadow=0;dashed=0;align=center;html=1;shape=mxgraph.mockup.forms.rrect;rSize=0;strokeColor=#999999;fontColor=#999999;" vertex="1" parent="77iEXywXWih31yL-sC0n-2">
          <mxGeometry x="10" y="88" width="20" height="20" as="geometry" />
        </mxCell>
        <mxCell id="77iEXywXWih31yL-sC0n-28" value="16" style="strokeWidth=1;shadow=0;dashed=0;align=center;html=1;shape=mxgraph.mockup.forms.rrect;rSize=0;strokeColor=#999999;fontColor=#999999;" vertex="1" parent="77iEXywXWih31yL-sC0n-2">
          <mxGeometry x="30" y="88" width="20" height="20" as="geometry" />
        </mxCell>
        <mxCell id="77iEXywXWih31yL-sC0n-29" value="17" style="strokeWidth=1;shadow=0;dashed=0;align=center;html=1;shape=mxgraph.mockup.forms.rrect;rSize=0;strokeColor=#999999;fontColor=#999999;" vertex="1" parent="77iEXywXWih31yL-sC0n-2">
          <mxGeometry x="50" y="88" width="20" height="20" as="geometry" />
        </mxCell>
        <mxCell id="77iEXywXWih31yL-sC0n-30" value="18" style="strokeWidth=1;shadow=0;dashed=0;align=center;html=1;shape=mxgraph.mockup.forms.rrect;rSize=0;strokeColor=#999999;fontColor=#999999;" vertex="1" parent="77iEXywXWih31yL-sC0n-2">
          <mxGeometry x="70" y="88" width="20" height="20" as="geometry" />
        </mxCell>
        <mxCell id="77iEXywXWih31yL-sC0n-31" value="19" style="strokeWidth=1;shadow=0;dashed=0;align=center;html=1;shape=mxgraph.mockup.forms.rrect;rSize=0;strokeColor=#999999;fontColor=#999999;" vertex="1" parent="77iEXywXWih31yL-sC0n-2">
          <mxGeometry x="90" y="88" width="20" height="20" as="geometry" />
        </mxCell>
        <mxCell id="77iEXywXWih31yL-sC0n-32" value="20" style="strokeWidth=1;shadow=0;dashed=0;align=center;html=1;shape=mxgraph.mockup.forms.rrect;rSize=0;strokeColor=#999999;fontColor=#999999;" vertex="1" parent="77iEXywXWih31yL-sC0n-2">
          <mxGeometry x="110" y="88" width="20" height="20" as="geometry" />
        </mxCell>
        <mxCell id="77iEXywXWih31yL-sC0n-33" value="21" style="strokeWidth=1;shadow=0;dashed=0;align=center;html=1;shape=mxgraph.mockup.forms.rrect;rSize=0;strokeColor=#999999;fontColor=#999999;" vertex="1" parent="77iEXywXWih31yL-sC0n-2">
          <mxGeometry x="130" y="88" width="20" height="20" as="geometry" />
        </mxCell>
        <mxCell id="77iEXywXWih31yL-sC0n-34" value="22" style="strokeWidth=1;shadow=0;dashed=0;align=center;html=1;shape=mxgraph.mockup.forms.rrect;rSize=0;strokeColor=#999999;fontColor=#999999;" vertex="1" parent="77iEXywXWih31yL-sC0n-2">
          <mxGeometry x="10" y="108" width="20" height="20" as="geometry" />
        </mxCell>
        <mxCell id="77iEXywXWih31yL-sC0n-35" value="23" style="strokeWidth=1;shadow=0;dashed=0;align=center;html=1;shape=mxgraph.mockup.forms.rrect;rSize=0;strokeColor=#999999;fontColor=#999999;" vertex="1" parent="77iEXywXWih31yL-sC0n-2">
          <mxGeometry x="30" y="108" width="20" height="20" as="geometry" />
        </mxCell>
        <mxCell id="77iEXywXWih31yL-sC0n-36" value="25" style="strokeWidth=1;shadow=0;dashed=0;align=center;html=1;shape=mxgraph.mockup.forms.rrect;rSize=0;strokeColor=#999999;fontColor=#999999;" vertex="1" parent="77iEXywXWih31yL-sC0n-2">
          <mxGeometry x="70" y="108" width="20" height="20" as="geometry" />
        </mxCell>
        <mxCell id="77iEXywXWih31yL-sC0n-37" value="26" style="strokeWidth=1;shadow=0;dashed=0;align=center;html=1;shape=mxgraph.mockup.forms.rrect;rSize=0;strokeColor=#999999;fontColor=#999999;" vertex="1" parent="77iEXywXWih31yL-sC0n-2">
          <mxGeometry x="90" y="108" width="20" height="20" as="geometry" />
        </mxCell>
        <mxCell id="77iEXywXWih31yL-sC0n-38" value="27" style="strokeWidth=1;shadow=0;dashed=0;align=center;html=1;shape=mxgraph.mockup.forms.rrect;rSize=0;strokeColor=#999999;fontColor=#999999;" vertex="1" parent="77iEXywXWih31yL-sC0n-2">
          <mxGeometry x="110" y="108" width="20" height="20" as="geometry" />
        </mxCell>
        <mxCell id="77iEXywXWih31yL-sC0n-39" value="28" style="strokeWidth=1;shadow=0;dashed=0;align=center;html=1;shape=mxgraph.mockup.forms.rrect;rSize=0;strokeColor=#999999;fontColor=#999999;" vertex="1" parent="77iEXywXWih31yL-sC0n-2">
          <mxGeometry x="130" y="108" width="20" height="20" as="geometry" />
        </mxCell>
        <mxCell id="77iEXywXWih31yL-sC0n-40" value="29" style="strokeWidth=1;shadow=0;dashed=0;align=center;html=1;shape=mxgraph.mockup.forms.rrect;rSize=0;strokeColor=#999999;fontColor=#999999;" vertex="1" parent="77iEXywXWih31yL-sC0n-2">
          <mxGeometry x="10" y="128" width="20" height="20" as="geometry" />
        </mxCell>
        <mxCell id="77iEXywXWih31yL-sC0n-41" value="30" style="strokeWidth=1;shadow=0;dashed=0;align=center;html=1;shape=mxgraph.mockup.forms.rrect;rSize=0;strokeColor=#999999;fontColor=#999999;" vertex="1" parent="77iEXywXWih31yL-sC0n-2">
          <mxGeometry x="30" y="128" width="20" height="20" as="geometry" />
        </mxCell>
        <mxCell id="77iEXywXWih31yL-sC0n-42" value="31" style="strokeWidth=1;shadow=0;dashed=0;align=center;html=1;shape=mxgraph.mockup.forms.rrect;rSize=0;strokeColor=#999999;fontColor=#999999;" vertex="1" parent="77iEXywXWih31yL-sC0n-2">
          <mxGeometry x="50" y="128" width="20" height="20" as="geometry" />
        </mxCell>
        <mxCell id="77iEXywXWih31yL-sC0n-43" value="1" style="strokeWidth=1;shadow=0;dashed=0;align=center;html=1;shape=mxgraph.mockup.forms.rrect;rSize=0;strokeColor=#999999;fontColor=#999999;fillColor=#ddeeff;" vertex="1" parent="77iEXywXWih31yL-sC0n-2">
          <mxGeometry x="70" y="128" width="20" height="20" as="geometry" />
        </mxCell>
        <mxCell id="77iEXywXWih31yL-sC0n-44" value="2" style="strokeWidth=1;shadow=0;dashed=0;align=center;html=1;shape=mxgraph.mockup.forms.rrect;rSize=0;strokeColor=#999999;fontColor=#999999;fillColor=#ddeeff;" vertex="1" parent="77iEXywXWih31yL-sC0n-2">
          <mxGeometry x="90" y="128" width="20" height="20" as="geometry" />
        </mxCell>
        <mxCell id="77iEXywXWih31yL-sC0n-45" value="3" style="strokeWidth=1;shadow=0;dashed=0;align=center;html=1;shape=mxgraph.mockup.forms.rrect;rSize=0;strokeColor=#999999;fontColor=#999999;fillColor=#ddeeff;" vertex="1" parent="77iEXywXWih31yL-sC0n-2">
          <mxGeometry x="110" y="128" width="20" height="20" as="geometry" />
        </mxCell>
        <mxCell id="77iEXywXWih31yL-sC0n-46" value="4" style="strokeWidth=1;shadow=0;dashed=0;align=center;html=1;shape=mxgraph.mockup.forms.rrect;rSize=0;strokeColor=#999999;fontColor=#999999;fillColor=#ddeeff;" vertex="1" parent="77iEXywXWih31yL-sC0n-2">
          <mxGeometry x="130" y="128" width="20" height="20" as="geometry" />
        </mxCell>
        <mxCell id="77iEXywXWih31yL-sC0n-47" value="5" style="strokeWidth=1;shadow=0;dashed=0;align=center;html=1;shape=mxgraph.mockup.forms.rrect;rSize=0;strokeColor=#999999;fontColor=#999999;fillColor=#ddeeff;" vertex="1" parent="77iEXywXWih31yL-sC0n-2">
          <mxGeometry x="10" y="148" width="20" height="20" as="geometry" />
        </mxCell>
        <mxCell id="77iEXywXWih31yL-sC0n-48" value="6" style="strokeWidth=1;shadow=0;dashed=0;align=center;html=1;shape=mxgraph.mockup.forms.rrect;rSize=0;strokeColor=#999999;fontColor=#999999;fillColor=#ddeeff;" vertex="1" parent="77iEXywXWih31yL-sC0n-2">
          <mxGeometry x="30" y="148" width="20" height="20" as="geometry" />
        </mxCell>
        <mxCell id="77iEXywXWih31yL-sC0n-49" value="7" style="strokeWidth=1;shadow=0;dashed=0;align=center;html=1;shape=mxgraph.mockup.forms.rrect;rSize=0;strokeColor=#999999;fontColor=#999999;fillColor=#ddeeff;" vertex="1" parent="77iEXywXWih31yL-sC0n-2">
          <mxGeometry x="50" y="148" width="20" height="20" as="geometry" />
        </mxCell>
        <mxCell id="77iEXywXWih31yL-sC0n-50" value="8" style="strokeWidth=1;shadow=0;dashed=0;align=center;html=1;shape=mxgraph.mockup.forms.rrect;rSize=0;strokeColor=#999999;fontColor=#999999;fillColor=#ddeeff;" vertex="1" parent="77iEXywXWih31yL-sC0n-2">
          <mxGeometry x="70" y="148" width="20" height="20" as="geometry" />
        </mxCell>
        <mxCell id="77iEXywXWih31yL-sC0n-51" value="9" style="strokeWidth=1;shadow=0;dashed=0;align=center;html=1;shape=mxgraph.mockup.forms.rrect;rSize=0;strokeColor=#999999;fontColor=#999999;fillColor=#ddeeff;" vertex="1" parent="77iEXywXWih31yL-sC0n-2">
          <mxGeometry x="90" y="148" width="20" height="20" as="geometry" />
        </mxCell>
        <mxCell id="77iEXywXWih31yL-sC0n-52" value="10" style="strokeWidth=1;shadow=0;dashed=0;align=center;html=1;shape=mxgraph.mockup.forms.rrect;rSize=0;strokeColor=#999999;fontColor=#999999;fillColor=#ddeeff;" vertex="1" parent="77iEXywXWih31yL-sC0n-2">
          <mxGeometry x="110" y="148" width="20" height="20" as="geometry" />
        </mxCell>
        <mxCell id="77iEXywXWih31yL-sC0n-53" value="11" style="strokeWidth=1;shadow=0;dashed=0;align=center;html=1;shape=mxgraph.mockup.forms.rrect;rSize=0;strokeColor=#999999;fontColor=#999999;fillColor=#ddeeff;" vertex="1" parent="77iEXywXWih31yL-sC0n-2">
          <mxGeometry x="130" y="148" width="20" height="20" as="geometry" />
        </mxCell>
        <mxCell id="77iEXywXWih31yL-sC0n-54" value="24" style="strokeWidth=1;shadow=0;dashed=0;align=center;html=1;shape=mxgraph.mockup.forms.rrect;rSize=0;strokeColor=#ff0000;fontColor=#ffffff;strokeWidth=2;fillColor=#008cff;" vertex="1" parent="77iEXywXWih31yL-sC0n-2">
          <mxGeometry x="50" y="108" width="20" height="20" as="geometry" />
        </mxCell>
        <mxCell id="77iEXywXWih31yL-sC0n-68" value="" style="html=1;shadow=0;dashed=0;shape=mxgraph.bootstrap.rrect;rSize=5;strokeColor=none;html=1;whiteSpace=wrap;fillColor=#6C767D;fontColor=#ffffff;" vertex="1" parent="1">
          <mxGeometry x="60" y="-2917" width="180" height="30" as="geometry" />
        </mxCell>
        <mxCell id="77iEXywXWih31yL-sC0n-69" value="Left" style="strokeColor=inherit;fillColor=inherit;gradientColor=inherit;fontColor=inherit;html=1;shadow=0;dashed=0;shape=mxgraph.bootstrap.leftButton;rSize=5;perimeter=none;whiteSpace=wrap;resizeHeight=1;" vertex="1" parent="77iEXywXWih31yL-sC0n-68">
          <mxGeometry width="60" height="30" relative="1" as="geometry" />
        </mxCell>
        <mxCell id="77iEXywXWih31yL-sC0n-70" value="Middle" style="strokeColor=inherit;fillColor=inherit;gradientColor=inherit;fontColor=inherit;html=1;shadow=0;dashed=0;perimeter=none;whiteSpace=wrap;resizeHeight=1;" vertex="1" parent="77iEXywXWih31yL-sC0n-68">
          <mxGeometry width="60" height="30" relative="1" as="geometry">
            <mxPoint x="60" as="offset" />
          </mxGeometry>
        </mxCell>
        <mxCell id="77iEXywXWih31yL-sC0n-71" value="Right" style="strokeColor=inherit;fillColor=inherit;gradientColor=inherit;fontColor=inherit;html=1;shadow=0;dashed=0;shape=mxgraph.bootstrap.rightButton;rSize=5;perimeter=none;whiteSpace=wrap;resizeHeight=1;" vertex="1" parent="77iEXywXWih31yL-sC0n-68">
          <mxGeometry x="1" width="60" height="30" relative="1" as="geometry">
            <mxPoint x="-60" as="offset" />
          </mxGeometry>
        </mxCell>
        <mxCell id="77iEXywXWih31yL-sC0n-72" value="" style="strokeColor=#999999;verticalLabelPosition=bottom;shadow=0;dashed=0;verticalAlign=top;strokeWidth=2;html=1;shape=mxgraph.mockup.misc.shareIcon;" vertex="1" parent="1">
          <mxGeometry x="30" y="-3120" width="50" height="50" as="geometry" />
        </mxCell>
        <mxCell id="77iEXywXWih31yL-sC0n-73" value="" style="strokeColor=#999999;verticalLabelPosition=bottom;shadow=0;dashed=0;verticalAlign=top;strokeWidth=2;html=1;shape=mxgraph.mockup.misc.trashcanIcon;" vertex="1" parent="1">
          <mxGeometry x="40" y="-3022" width="50" height="50" as="geometry" />
        </mxCell>
        <mxCell id="77iEXywXWih31yL-sC0n-74" value="" style="verticalLabelPosition=bottom;shadow=0;dashed=0;align=center;html=1;verticalAlign=top;strokeWidth=1;shape=mxgraph.mockup.misc.shoppingCart;strokeColor=#999999;" vertex="1" parent="1">
          <mxGeometry x="10" y="-3190" width="50" height="50" as="geometry" />
        </mxCell>
        <mxCell id="77iEXywXWih31yL-sC0n-75" value="" style="verticalLabelPosition=bottom;shadow=0;dashed=0;align=center;html=1;verticalAlign=top;strokeWidth=1;shape=mxgraph.mockup.misc.help_icon;" vertex="1" parent="1">
          <mxGeometry x="19" y="-3280" width="32" height="32" as="geometry" />
        </mxCell>
        <mxCell id="77iEXywXWih31yL-sC0n-76" value="" style="dashed=0;align=center;fontSize=12;shape=rect;fillColor=#00796B;strokeColor=none;shadow=0;" vertex="1" parent="1">
          <mxGeometry x="180" y="-3218" width="358" height="48" as="geometry" />
        </mxCell>
        <mxCell id="77iEXywXWih31yL-sC0n-77" value="" style="dashed=0;html=1;shape=mxgraph.gmdl.video_2;fillColor=#ffffff;strokeColor=none;fontColor=#ffffff;verticalAlign=top;spacingLeft=0;fontSize=10;labelPosition=center;verticalLabelPosition=bottom;align=center;spacingBottom=0;spacingTop=-6;opacity=60;" vertex="1" parent="77iEXywXWih31yL-sC0n-76">
          <mxGeometry x="0.15" y="0.5" width="20" height="16" relative="1" as="geometry">
            <mxPoint x="-10" y="-8" as="offset" />
          </mxGeometry>
        </mxCell>
        <mxCell id="77iEXywXWih31yL-sC0n-78" value="Music" style="dashed=0;html=1;shape=mxgraph.gmdl.music;fillColor=#ffffff;strokeColor=none;fontColor=#ffffff;verticalAlign=top;spacingLeft=0;fontSize=10;labelPosition=center;verticalLabelPosition=bottom;align=center;spacingBottom=0;spacingTop=-5;" vertex="1" parent="77iEXywXWih31yL-sC0n-76">
          <mxGeometry x="0.38" y="0.5" width="14" height="20" relative="1" as="geometry">
            <mxPoint x="-10" y="-14" as="offset" />
          </mxGeometry>
        </mxCell>
        <mxCell id="77iEXywXWih31yL-sC0n-79" value="" style="dashed=0;html=1;shape=mxgraph.gmdl.book;fillColor=#ffffff;strokeColor=none;fontColor=#ffffff;verticalAlign=top;spacingLeft=0;fontSize=10;labelPosition=center;verticalLabelPosition=bottom;align=center;spacingBottom=0;spacingTop=-6;opacity=60;" vertex="1" parent="77iEXywXWih31yL-sC0n-76">
          <mxGeometry x="0.62" y="0.5" width="16" height="20" relative="1" as="geometry">
            <mxPoint x="-8" y="-10" as="offset" />
          </mxGeometry>
        </mxCell>
        <mxCell id="77iEXywXWih31yL-sC0n-80" value="" style="dashed=0;html=1;shape=mxgraph.gmdl.webpage;fillColor=#ffffff;strokeColor=none;fontColor=#ffffff;verticalAlign=top;spacingLeft=0;fontSize=10;labelPosition=center;verticalLabelPosition=bottom;align=center;spacingBottom=0;spacingTop=-6;opacity=60;" vertex="1" parent="77iEXywXWih31yL-sC0n-76">
          <mxGeometry x="0.85" y="0.5" width="20" height="20" relative="1" as="geometry">
            <mxPoint x="-10" y="-15" as="offset" />
          </mxGeometry>
        </mxCell>
        <mxCell id="77iEXywXWih31yL-sC0n-81" value="" style="shape=image;html=1;verticalAlign=top;verticalLabelPosition=bottom;labelBackgroundColor=#ffffff;imageAspect=0;aspect=fixed;image=https://cdn4.iconfinder.com/data/icons/mayssam/512/location-128.png" vertex="1" parent="1">
          <mxGeometry x="52" y="-3320" width="128" height="128" as="geometry" />
        </mxCell>
        <mxCell id="77iEXywXWih31yL-sC0n-82" value="" style="shape=image;html=1;verticalAlign=top;verticalLabelPosition=bottom;labelBackgroundColor=#ffffff;imageAspect=0;aspect=fixed;image=https://cdn3.iconfinder.com/data/icons/basic-user-interface-5/64/maps_map_location_pin_direction-128.png" vertex="1" parent="1">
          <mxGeometry x="116" y="-3130" width="128" height="128" as="geometry" />
        </mxCell>
        <mxCell id="77iEXywXWih31yL-sC0n-83" value="" style="shape=image;html=1;verticalAlign=top;verticalLabelPosition=bottom;labelBackgroundColor=#ffffff;imageAspect=0;aspect=fixed;image=https://cdn2.iconfinder.com/data/icons/metro-uinvert-dock/128/Google_Maps.png" vertex="1" parent="1">
          <mxGeometry x="140" y="-3220" width="128" height="128" as="geometry" />
        </mxCell>
      </root>
    </mxGraphModel>
  </diagram>
  <diagram id="OrM2KmFwFuXtyr5RhSoy" name="Projekt beitreten">
    <mxGraphModel dx="881" dy="603" grid="1" gridSize="10" guides="1" tooltips="1" connect="1" arrows="1" fold="1" page="1" pageScale="1" pageWidth="827" pageHeight="1169" math="0" shadow="0">
      <root>
        <mxCell id="FsiZ8nPH4pdCtrFNKoso-0" />
        <mxCell id="FsiZ8nPH4pdCtrFNKoso-1" parent="FsiZ8nPH4pdCtrFNKoso-0" />
      </root>
    </mxGraphModel>
  </diagram>
  <diagram id="zMNhwMPO03PuLzzKzh1c" name="Projekt starten">
    <mxGraphModel dx="881" dy="4110" grid="1" gridSize="10" guides="1" tooltips="1" connect="1" arrows="1" fold="1" page="1" pageScale="1" pageWidth="827" pageHeight="1169" math="0" shadow="0">
      <root>
        <mxCell id="JX-2QHVazatMrgPOA0vv-0" />
        <mxCell id="JX-2QHVazatMrgPOA0vv-1" parent="JX-2QHVazatMrgPOA0vv-0" />
        <mxCell id="YO3xrvsDcWU7-l8KT-qI-0" value="" style="verticalLabelPosition=bottom;shadow=0;dashed=0;align=center;html=1;verticalAlign=top;strokeWidth=1;shape=mxgraph.mockup.misc.map;strokeColor=none;" vertex="1" parent="JX-2QHVazatMrgPOA0vv-1">
          <mxGeometry x="69" y="-3375.5" width="240" height="300" as="geometry" />
        </mxCell>
        <mxCell id="YO3xrvsDcWU7-l8KT-qI-1" value="" style="verticalLabelPosition=bottom;verticalAlign=top;html=1;shadow=0;dashed=0;strokeWidth=1;shape=mxgraph.android.phone2;strokeColor=#c0c0c0;fillColor=#330000;" vertex="1" parent="JX-2QHVazatMrgPOA0vv-1">
          <mxGeometry x="70" y="-3460" width="240" height="460" as="geometry" />
        </mxCell>
        <mxCell id="YO3xrvsDcWU7-l8KT-qI-2" value="" style="html=1;aspect=fixed;shadow=0;align=center;verticalAlign=top;shape=mxgraph.gcp2.maps_api;fillColor=#FF6666;strokeWidth=2;" vertex="1" parent="JX-2QHVazatMrgPOA0vv-1">
          <mxGeometry x="167.8" y="-3265" width="24.4" height="40" as="geometry" />
        </mxCell>
        <mxCell id="YO3xrvsDcWU7-l8KT-qI-3" value="IDEEN&amp;nbsp;&amp;nbsp;&amp;nbsp; " style="rounded=0;whiteSpace=wrap;html=1;strokeColor=#d6b656;strokeWidth=2;fillColor=#fff2cc;" vertex="1" parent="JX-2QHVazatMrgPOA0vv-1">
          <mxGeometry x="80" y="-3076.5" width="110" height="35" as="geometry" />
        </mxCell>
        <mxCell id="YO3xrvsDcWU7-l8KT-qI-4" value="&amp;nbsp;&amp;nbsp;&amp;nbsp; GALERIE" style="rounded=0;whiteSpace=wrap;html=1;strokeColor=#d6b656;strokeWidth=2;fillColor=#fff2cc;" vertex="1" parent="JX-2QHVazatMrgPOA0vv-1">
          <mxGeometry x="190" y="-3076.5" width="112.2" height="35" as="geometry" />
        </mxCell>
        <mxCell id="YO3xrvsDcWU7-l8KT-qI-5" value="" style="ellipse;whiteSpace=wrap;html=1;aspect=fixed;strokeColor=#000000;strokeWidth=2;fillColor=#FF6666;" vertex="1" parent="JX-2QHVazatMrgPOA0vv-1">
          <mxGeometry x="165" y="-3103" width="50" height="50" as="geometry" />
        </mxCell>
        <mxCell id="YO3xrvsDcWU7-l8KT-qI-6" value="" style="shape=image;html=1;verticalAlign=top;verticalLabelPosition=bottom;labelBackgroundColor=#ffffff;imageAspect=0;aspect=fixed;image=https://cdn1.iconfinder.com/data/icons/people-line/32/people_2-128.png;strokeColor=#000000;strokeWidth=2;fillColor=#FF6666;" vertex="1" parent="JX-2QHVazatMrgPOA0vv-1">
          <mxGeometry x="171.5" y="-3096.5" width="37" height="37" as="geometry" />
        </mxCell>
        <mxCell id="YO3xrvsDcWU7-l8KT-qI-7" value="" style="shape=image;html=1;verticalAlign=top;verticalLabelPosition=bottom;labelBackgroundColor=#ffffff;imageAspect=0;aspect=fixed;image=https://cdn1.iconfinder.com/data/icons/100-basic-for-user-interface/32/33-home-128.png;strokeColor=#000000;strokeWidth=2;fillColor=#330000;" vertex="1" parent="JX-2QHVazatMrgPOA0vv-1">
          <mxGeometry x="270" y="-3410" width="28" height="28" as="geometry" />
        </mxCell>
        <mxCell id="YO3xrvsDcWU7-l8KT-qI-8" value="" style="shape=rect;fillColor=#e0e0e0;strokeColor=none;" vertex="1" parent="JX-2QHVazatMrgPOA0vv-1">
          <mxGeometry x="120" y="-3410" width="138" height="30" as="geometry" />
        </mxCell>
        <mxCell id="YO3xrvsDcWU7-l8KT-qI-9" value="Suche&amp;nbsp;&amp;nbsp;&amp;nbsp;&amp;nbsp;&amp;nbsp; " style="html=1;strokeWidth=1;shadow=0;dashed=0;shape=mxgraph.ios7ui.marginRect;rx=3;ry=3;rectMargin=5;strokeColor=none;" vertex="1" parent="YO3xrvsDcWU7-l8KT-qI-8">
          <mxGeometry width="138" height="30" as="geometry" />
        </mxCell>
        <mxCell id="YO3xrvsDcWU7-l8KT-qI-10" value="" style="shape=image;html=1;verticalAlign=top;verticalLabelPosition=bottom;labelBackgroundColor=#ffffff;imageAspect=0;aspect=fixed;image=https://cdn1.iconfinder.com/data/icons/jumpicon-basic-ui-glyph-1/32/-_Hamburger-Menu-More-Navigation--128.png;strokeColor=#000000;strokeWidth=2;fillColor=#330000;" vertex="1" parent="JX-2QHVazatMrgPOA0vv-1">
          <mxGeometry x="80" y="-3416.5" width="41" height="41" as="geometry" />
        </mxCell>
        <mxCell id="YO3xrvsDcWU7-l8KT-qI-11" value="" style="html=1;aspect=fixed;strokeColor=none;shadow=0;align=center;verticalAlign=top;shape=mxgraph.gcp2.search;fontSize=9;fillColor=#999999;" vertex="1" parent="JX-2QHVazatMrgPOA0vv-1">
          <mxGeometry x="229.94" y="-3402.3" width="14.46" height="14.6" as="geometry" />
        </mxCell>
        <mxCell id="YO3xrvsDcWU7-l8KT-qI-12" value="" style="ellipse;whiteSpace=wrap;html=1;aspect=fixed;fontSize=9;strokeColor=#000000;strokeWidth=2;fillColor=#999999;gradientColor=none;" vertex="1" parent="JX-2QHVazatMrgPOA0vv-1">
          <mxGeometry x="240" y="-3230" width="25" height="25" as="geometry" />
        </mxCell>
        <mxCell id="YO3xrvsDcWU7-l8KT-qI-13" value="" style="shape=image;html=1;verticalAlign=top;verticalLabelPosition=bottom;labelBackgroundColor=#ffffff;imageAspect=0;aspect=fixed;image=https://cdn1.iconfinder.com/data/icons/iconnice-vector-icon/31/Vector-icons_86-128.png;fontSize=9;strokeColor=#000000;strokeWidth=2;fillColor=#999999;gradientColor=none;" vertex="1" parent="JX-2QHVazatMrgPOA0vv-1">
          <mxGeometry x="245.75" y="-3224.25" width="13.5" height="13.5" as="geometry" />
        </mxCell>
        <mxCell id="YO3xrvsDcWU7-l8KT-qI-15" value="" style="ellipse;whiteSpace=wrap;html=1;aspect=fixed;fontSize=9;strokeColor=#82b366;strokeWidth=2;fillColor=#d5e8d4;" vertex="1" parent="JX-2QHVazatMrgPOA0vv-1">
          <mxGeometry x="190" y="-3360" width="40" height="40" as="geometry" />
        </mxCell>
        <mxCell id="YO3xrvsDcWU7-l8KT-qI-16" value="" style="shape=image;html=1;verticalAlign=top;verticalLabelPosition=bottom;labelBackgroundColor=#ffffff;imageAspect=0;aspect=fixed;image=https://cdn1.iconfinder.com/data/icons/iconnice-vector-icon/31/Vector-icons_86-128.png;fontSize=9;strokeColor=#000000;strokeWidth=2;fillColor=#999999;gradientColor=none;" vertex="1" parent="JX-2QHVazatMrgPOA0vv-1">
          <mxGeometry x="197.9" y="-3352.09" width="24.19" height="24.19" as="geometry" />
        </mxCell>
        <mxCell id="YO3xrvsDcWU7-l8KT-qI-17" value="" style="ellipse;whiteSpace=wrap;html=1;aspect=fixed;fontSize=9;strokeColor=#b85450;strokeWidth=2;fillColor=#f8cecc;" vertex="1" parent="JX-2QHVazatMrgPOA0vv-1">
          <mxGeometry x="142.8" y="-3170" width="25" height="25" as="geometry" />
        </mxCell>
        <mxCell id="YO3xrvsDcWU7-l8KT-qI-18" value="" style="shape=image;html=1;verticalAlign=top;verticalLabelPosition=bottom;labelBackgroundColor=#ffffff;imageAspect=0;aspect=fixed;image=https://cdn1.iconfinder.com/data/icons/iconnice-vector-icon/31/Vector-icons_86-128.png;fontSize=9;strokeColor=#000000;strokeWidth=2;fillColor=#999999;gradientColor=none;" vertex="1" parent="JX-2QHVazatMrgPOA0vv-1">
          <mxGeometry x="148.55" y="-3164.25" width="13.5" height="13.5" as="geometry" />
        </mxCell>
        <mxCell id="YO3xrvsDcWU7-l8KT-qI-19" value="" style="ellipse;whiteSpace=wrap;html=1;aspect=fixed;fontSize=9;strokeColor=#82b366;strokeWidth=2;fillColor=#d5e8d4;" vertex="1" parent="JX-2QHVazatMrgPOA0vv-1">
          <mxGeometry x="160" y="-3300" width="25" height="25" as="geometry" />
        </mxCell>
        <mxCell id="YO3xrvsDcWU7-l8KT-qI-20" value="" style="shape=image;html=1;verticalAlign=top;verticalLabelPosition=bottom;labelBackgroundColor=#ffffff;imageAspect=0;aspect=fixed;image=https://cdn0.iconfinder.com/data/icons/pinpoint-notifocation/48/question-128.png;fontSize=9;strokeColor=#000000;strokeWidth=2;fillColor=#999999;gradientColor=none;" vertex="1" parent="JX-2QHVazatMrgPOA0vv-1">
          <mxGeometry x="163" y="-3297" width="19" height="19" as="geometry" />
        </mxCell>
        <mxCell id="YO3xrvsDcWU7-l8KT-qI-21" value="" style="ellipse;whiteSpace=wrap;html=1;aspect=fixed;fontSize=9;strokeColor=#82b366;strokeWidth=2;fillColor=#d5e8d4;" vertex="1" parent="JX-2QHVazatMrgPOA0vv-1">
          <mxGeometry x="110" y="-3345" width="25" height="25" as="geometry" />
        </mxCell>
        <mxCell id="YO3xrvsDcWU7-l8KT-qI-22" value="" style="ellipse;whiteSpace=wrap;html=1;aspect=fixed;fontSize=9;strokeColor=#82b366;strokeWidth=2;fillColor=#d5e8d4;" vertex="1" parent="JX-2QHVazatMrgPOA0vv-1">
          <mxGeometry x="100" y="-3257.5" width="25" height="25" as="geometry" />
        </mxCell>
        <mxCell id="YO3xrvsDcWU7-l8KT-qI-23" value="" style="ellipse;whiteSpace=wrap;html=1;aspect=fixed;fontSize=9;strokeColor=#82b366;strokeWidth=2;fillColor=#d5e8d4;" vertex="1" parent="JX-2QHVazatMrgPOA0vv-1">
          <mxGeometry x="215" y="-3175.75" width="25" height="25" as="geometry" />
        </mxCell>
        <mxCell id="YO3xrvsDcWU7-l8KT-qI-24" value="" style="shape=image;html=1;verticalAlign=top;verticalLabelPosition=bottom;labelBackgroundColor=#ffffff;imageAspect=0;aspect=fixed;image=https://cdn0.iconfinder.com/data/icons/sport-2-android-l-lollipop-icon-pack/24/walking-128.png;fontSize=9;strokeColor=#000000;strokeWidth=2;fillColor=#999999;gradientColor=none;" vertex="1" parent="JX-2QHVazatMrgPOA0vv-1">
          <mxGeometry x="112.5" y="-3342.5" width="20" height="20" as="geometry" />
        </mxCell>
        <mxCell id="YO3xrvsDcWU7-l8KT-qI-25" value="" style="shape=image;html=1;verticalAlign=top;verticalLabelPosition=bottom;labelBackgroundColor=#ffffff;imageAspect=0;aspect=fixed;image=https://cdn3.iconfinder.com/data/icons/essential-pack/32/10-House-128.png;fontSize=9;strokeColor=#000000;strokeWidth=2;fillColor=#999999;gradientColor=none;" vertex="1" parent="JX-2QHVazatMrgPOA0vv-1">
          <mxGeometry x="103.5" y="-3254" width="18" height="18" as="geometry" />
        </mxCell>
        <mxCell id="YO3xrvsDcWU7-l8KT-qI-26" value="" style="shape=image;html=1;verticalAlign=top;verticalLabelPosition=bottom;labelBackgroundColor=#ffffff;imageAspect=0;aspect=fixed;image=https://cdn4.iconfinder.com/data/icons/business-660/512/17_team_group_meeting_business-128.png;fontSize=9;strokeColor=#000000;strokeWidth=2;fillColor=#999999;gradientColor=none;" vertex="1" parent="JX-2QHVazatMrgPOA0vv-1">
          <mxGeometry x="216.5" y="-3174.25" width="22" height="22" as="geometry" />
        </mxCell>
        <mxCell id="YO3xrvsDcWU7-l8KT-qI-27" value="" style="shape=flexArrow;endArrow=classic;html=1;fontSize=9;entryX=0.692;entryY=0.132;entryDx=0;entryDy=0;entryPerimeter=0;fillColor=#f5f5f5;strokeColor=#666666;" edge="1" parent="JX-2QHVazatMrgPOA0vv-1" target="YO3xrvsDcWU7-l8KT-qI-0">
          <mxGeometry width="50" height="50" relative="1" as="geometry">
            <mxPoint x="380" y="-3336" as="sourcePoint" />
            <mxPoint x="440" y="-3290" as="targetPoint" />
            <Array as="points">
              <mxPoint x="235" y="-3336" />
            </Array>
          </mxGeometry>
        </mxCell>
        <mxCell id="YO3xrvsDcWU7-l8KT-qI-30" value="" style="verticalLabelPosition=bottom;shadow=0;dashed=0;align=center;html=1;verticalAlign=top;strokeWidth=1;shape=mxgraph.mockup.misc.map;strokeColor=none;" vertex="1" parent="JX-2QHVazatMrgPOA0vv-1">
          <mxGeometry x="400" y="-3375.5" width="240" height="300" as="geometry" />
        </mxCell>
        <mxCell id="YO3xrvsDcWU7-l8KT-qI-31" value="" style="verticalLabelPosition=bottom;verticalAlign=top;html=1;shadow=0;dashed=0;strokeWidth=1;shape=mxgraph.android.phone2;strokeColor=#c0c0c0;fillColor=#330000;" vertex="1" parent="JX-2QHVazatMrgPOA0vv-1">
          <mxGeometry x="401" y="-3460" width="240" height="460" as="geometry" />
        </mxCell>
        <mxCell id="YO3xrvsDcWU7-l8KT-qI-32" value="" style="html=1;aspect=fixed;shadow=0;align=center;verticalAlign=top;shape=mxgraph.gcp2.maps_api;fillColor=#FF6666;strokeWidth=2;" vertex="1" parent="JX-2QHVazatMrgPOA0vv-1">
          <mxGeometry x="498.79999999999995" y="-3265" width="24.4" height="40" as="geometry" />
        </mxCell>
        <mxCell id="YO3xrvsDcWU7-l8KT-qI-33" value="IDEEN&amp;nbsp;&amp;nbsp;&amp;nbsp; " style="rounded=0;whiteSpace=wrap;html=1;strokeColor=#d6b656;strokeWidth=2;fillColor=#fff2cc;" vertex="1" parent="JX-2QHVazatMrgPOA0vv-1">
          <mxGeometry x="411" y="-3076.5" width="110" height="35" as="geometry" />
        </mxCell>
        <mxCell id="YO3xrvsDcWU7-l8KT-qI-34" value="&amp;nbsp;&amp;nbsp;&amp;nbsp; GALERIE" style="rounded=0;whiteSpace=wrap;html=1;strokeColor=#d6b656;strokeWidth=2;fillColor=#fff2cc;" vertex="1" parent="JX-2QHVazatMrgPOA0vv-1">
          <mxGeometry x="521" y="-3076.5" width="112.2" height="35" as="geometry" />
        </mxCell>
        <mxCell id="YO3xrvsDcWU7-l8KT-qI-35" value="" style="ellipse;whiteSpace=wrap;html=1;aspect=fixed;strokeColor=#000000;strokeWidth=2;fillColor=#FF6666;" vertex="1" parent="JX-2QHVazatMrgPOA0vv-1">
          <mxGeometry x="496" y="-3103" width="50" height="50" as="geometry" />
        </mxCell>
        <mxCell id="YO3xrvsDcWU7-l8KT-qI-36" value="" style="shape=image;html=1;verticalAlign=top;verticalLabelPosition=bottom;labelBackgroundColor=#ffffff;imageAspect=0;aspect=fixed;image=https://cdn1.iconfinder.com/data/icons/people-line/32/people_2-128.png;strokeColor=#000000;strokeWidth=2;fillColor=#FF6666;" vertex="1" parent="JX-2QHVazatMrgPOA0vv-1">
          <mxGeometry x="502.5" y="-3096.5" width="37" height="37" as="geometry" />
        </mxCell>
        <mxCell id="YO3xrvsDcWU7-l8KT-qI-37" value="" style="shape=image;html=1;verticalAlign=top;verticalLabelPosition=bottom;labelBackgroundColor=#ffffff;imageAspect=0;aspect=fixed;image=https://cdn1.iconfinder.com/data/icons/100-basic-for-user-interface/32/33-home-128.png;strokeColor=#000000;strokeWidth=2;fillColor=#330000;" vertex="1" parent="JX-2QHVazatMrgPOA0vv-1">
          <mxGeometry x="601" y="-3410" width="28" height="28" as="geometry" />
        </mxCell>
        <mxCell id="YO3xrvsDcWU7-l8KT-qI-38" value="" style="shape=rect;fillColor=#e0e0e0;strokeColor=none;" vertex="1" parent="JX-2QHVazatMrgPOA0vv-1">
          <mxGeometry x="451" y="-3410" width="138" height="30" as="geometry" />
        </mxCell>
        <mxCell id="YO3xrvsDcWU7-l8KT-qI-39" value="Suche&amp;nbsp;&amp;nbsp;&amp;nbsp;&amp;nbsp;&amp;nbsp; " style="html=1;strokeWidth=1;shadow=0;dashed=0;shape=mxgraph.ios7ui.marginRect;rx=3;ry=3;rectMargin=5;strokeColor=none;" vertex="1" parent="YO3xrvsDcWU7-l8KT-qI-38">
          <mxGeometry width="138" height="30" as="geometry" />
        </mxCell>
        <mxCell id="YO3xrvsDcWU7-l8KT-qI-40" value="" style="shape=image;html=1;verticalAlign=top;verticalLabelPosition=bottom;labelBackgroundColor=#ffffff;imageAspect=0;aspect=fixed;image=https://cdn1.iconfinder.com/data/icons/jumpicon-basic-ui-glyph-1/32/-_Hamburger-Menu-More-Navigation--128.png;strokeColor=#000000;strokeWidth=2;fillColor=#330000;" vertex="1" parent="JX-2QHVazatMrgPOA0vv-1">
          <mxGeometry x="411" y="-3416.5" width="41" height="41" as="geometry" />
        </mxCell>
        <mxCell id="YO3xrvsDcWU7-l8KT-qI-41" value="" style="html=1;aspect=fixed;strokeColor=none;shadow=0;align=center;verticalAlign=top;shape=mxgraph.gcp2.search;fontSize=9;fillColor=#999999;" vertex="1" parent="JX-2QHVazatMrgPOA0vv-1">
          <mxGeometry x="560.94" y="-3402.3" width="14.46" height="14.6" as="geometry" />
        </mxCell>
        <mxCell id="YO3xrvsDcWU7-l8KT-qI-42" value="" style="ellipse;whiteSpace=wrap;html=1;aspect=fixed;fontSize=9;strokeColor=#000000;strokeWidth=2;fillColor=#999999;gradientColor=none;" vertex="1" parent="JX-2QHVazatMrgPOA0vv-1">
          <mxGeometry x="571" y="-3230" width="25" height="25" as="geometry" />
        </mxCell>
        <mxCell id="YO3xrvsDcWU7-l8KT-qI-43" value="" style="shape=image;html=1;verticalAlign=top;verticalLabelPosition=bottom;labelBackgroundColor=#ffffff;imageAspect=0;aspect=fixed;image=https://cdn1.iconfinder.com/data/icons/iconnice-vector-icon/31/Vector-icons_86-128.png;fontSize=9;strokeColor=#000000;strokeWidth=2;fillColor=#999999;gradientColor=none;" vertex="1" parent="JX-2QHVazatMrgPOA0vv-1">
          <mxGeometry x="576.75" y="-3224.25" width="13.5" height="13.5" as="geometry" />
        </mxCell>
        <mxCell id="YO3xrvsDcWU7-l8KT-qI-44" value="" style="ellipse;whiteSpace=wrap;html=1;aspect=fixed;fontSize=9;strokeColor=#82b366;strokeWidth=2;fillColor=#d5e8d4;" vertex="1" parent="JX-2QHVazatMrgPOA0vv-1">
          <mxGeometry x="521" y="-3360" width="40" height="40" as="geometry" />
        </mxCell>
        <mxCell id="YO3xrvsDcWU7-l8KT-qI-45" value="" style="shape=image;html=1;verticalAlign=top;verticalLabelPosition=bottom;labelBackgroundColor=#ffffff;imageAspect=0;aspect=fixed;image=https://cdn1.iconfinder.com/data/icons/iconnice-vector-icon/31/Vector-icons_86-128.png;fontSize=9;strokeColor=#000000;strokeWidth=2;fillColor=#999999;gradientColor=none;" vertex="1" parent="JX-2QHVazatMrgPOA0vv-1">
          <mxGeometry x="528.9" y="-3352.09" width="24.19" height="24.19" as="geometry" />
        </mxCell>
        <mxCell id="YO3xrvsDcWU7-l8KT-qI-46" value="" style="ellipse;whiteSpace=wrap;html=1;aspect=fixed;fontSize=9;strokeColor=#b85450;strokeWidth=2;fillColor=#f8cecc;" vertex="1" parent="JX-2QHVazatMrgPOA0vv-1">
          <mxGeometry x="473.8" y="-3170" width="25" height="25" as="geometry" />
        </mxCell>
        <mxCell id="YO3xrvsDcWU7-l8KT-qI-47" value="" style="shape=image;html=1;verticalAlign=top;verticalLabelPosition=bottom;labelBackgroundColor=#ffffff;imageAspect=0;aspect=fixed;image=https://cdn1.iconfinder.com/data/icons/iconnice-vector-icon/31/Vector-icons_86-128.png;fontSize=9;strokeColor=#000000;strokeWidth=2;fillColor=#999999;gradientColor=none;" vertex="1" parent="JX-2QHVazatMrgPOA0vv-1">
          <mxGeometry x="479.55" y="-3164.25" width="13.5" height="13.5" as="geometry" />
        </mxCell>
        <mxCell id="YO3xrvsDcWU7-l8KT-qI-48" value="" style="ellipse;whiteSpace=wrap;html=1;aspect=fixed;fontSize=9;strokeColor=#82b366;strokeWidth=2;fillColor=#d5e8d4;" vertex="1" parent="JX-2QHVazatMrgPOA0vv-1">
          <mxGeometry x="491" y="-3300" width="25" height="25" as="geometry" />
        </mxCell>
        <mxCell id="YO3xrvsDcWU7-l8KT-qI-49" value="" style="shape=image;html=1;verticalAlign=top;verticalLabelPosition=bottom;labelBackgroundColor=#ffffff;imageAspect=0;aspect=fixed;image=https://cdn0.iconfinder.com/data/icons/pinpoint-notifocation/48/question-128.png;fontSize=9;strokeColor=#000000;strokeWidth=2;fillColor=#999999;gradientColor=none;" vertex="1" parent="JX-2QHVazatMrgPOA0vv-1">
          <mxGeometry x="494" y="-3297" width="19" height="19" as="geometry" />
        </mxCell>
        <mxCell id="YO3xrvsDcWU7-l8KT-qI-50" value="" style="ellipse;whiteSpace=wrap;html=1;aspect=fixed;fontSize=9;strokeColor=#82b366;strokeWidth=2;fillColor=#d5e8d4;" vertex="1" parent="JX-2QHVazatMrgPOA0vv-1">
          <mxGeometry x="441" y="-3345" width="25" height="25" as="geometry" />
        </mxCell>
        <mxCell id="YO3xrvsDcWU7-l8KT-qI-51" value="" style="ellipse;whiteSpace=wrap;html=1;aspect=fixed;fontSize=9;strokeColor=#82b366;strokeWidth=2;fillColor=#d5e8d4;" vertex="1" parent="JX-2QHVazatMrgPOA0vv-1">
          <mxGeometry x="431" y="-3257.5" width="25" height="25" as="geometry" />
        </mxCell>
        <mxCell id="YO3xrvsDcWU7-l8KT-qI-52" value="" style="ellipse;whiteSpace=wrap;html=1;aspect=fixed;fontSize=9;strokeColor=#82b366;strokeWidth=2;fillColor=#d5e8d4;" vertex="1" parent="JX-2QHVazatMrgPOA0vv-1">
          <mxGeometry x="546" y="-3175.75" width="25" height="25" as="geometry" />
        </mxCell>
        <mxCell id="YO3xrvsDcWU7-l8KT-qI-53" value="" style="shape=image;html=1;verticalAlign=top;verticalLabelPosition=bottom;labelBackgroundColor=#ffffff;imageAspect=0;aspect=fixed;image=https://cdn0.iconfinder.com/data/icons/sport-2-android-l-lollipop-icon-pack/24/walking-128.png;fontSize=9;strokeColor=#000000;strokeWidth=2;fillColor=#999999;gradientColor=none;" vertex="1" parent="JX-2QHVazatMrgPOA0vv-1">
          <mxGeometry x="443.5" y="-3342.5" width="20" height="20" as="geometry" />
        </mxCell>
        <mxCell id="YO3xrvsDcWU7-l8KT-qI-54" value="" style="shape=image;html=1;verticalAlign=top;verticalLabelPosition=bottom;labelBackgroundColor=#ffffff;imageAspect=0;aspect=fixed;image=https://cdn3.iconfinder.com/data/icons/essential-pack/32/10-House-128.png;fontSize=9;strokeColor=#000000;strokeWidth=2;fillColor=#999999;gradientColor=none;" vertex="1" parent="JX-2QHVazatMrgPOA0vv-1">
          <mxGeometry x="434.5" y="-3254" width="18" height="18" as="geometry" />
        </mxCell>
        <mxCell id="YO3xrvsDcWU7-l8KT-qI-55" value="" style="shape=image;html=1;verticalAlign=top;verticalLabelPosition=bottom;labelBackgroundColor=#ffffff;imageAspect=0;aspect=fixed;image=https://cdn4.iconfinder.com/data/icons/business-660/512/17_team_group_meeting_business-128.png;fontSize=9;strokeColor=#000000;strokeWidth=2;fillColor=#999999;gradientColor=none;" vertex="1" parent="JX-2QHVazatMrgPOA0vv-1">
          <mxGeometry x="547.5" y="-3174.25" width="22" height="22" as="geometry" />
        </mxCell>
      </root>
    </mxGraphModel>
  </diagram>
</mxfile>
